<?xml version="1.0" encoding="UTF-8" standalone="no"?>
<!DOCTYPE svg PUBLIC "-//W3C//DTD SVG 1.1//EN"
 "http://www.w3.org/Graphics/SVG/1.1/DTD/svg11.dtd">
<!-- Generated by graphviz version 2.47.3 (20210619.1520)
 -->
<!-- Title: dependencies Pages: 1 -->
<svg width="1311pt" height="174pt"
 viewBox="0.00 0.00 1311.00 173.80" xmlns="http://www.w3.org/2000/svg" xmlns:xlink="http://www.w3.org/1999/xlink">
<g id="graph0" class="graph" transform="scale(1 1) rotate(0) translate(4 169.8)">
<title>dependencies</title>
<polygon fill="white" stroke="transparent" points="-4,4 -4,-169.8 1307,-169.8 1307,4 -4,4"/>
<text text-anchor="middle" x="651.5" y="-8.2" font-family="sans-serif" font-size="14.00">dependencies</text>
<g id="clust1" class="cluster">
<title>cluster_AuthModule</title>
<polygon fill="none" stroke="black" stroke-dasharray="1,5" points="8,-32.8 8,-157.8 1295,-157.8 1295,-32.8 8,-32.8"/>
</g>
<g id="clust6" class="cluster">
<title>cluster_AuthModule_providers</title>
<polygon fill="none" stroke="black" points="16,-40.8 16,-92.8 1287,-92.8 1287,-40.8 16,-40.8"/>
</g>
<!-- AuthService -->
<g id="node1" class="node">
<title>AuthService</title>
<ellipse fill="#fdb462" stroke="black" cx="1220" cy="-66.8" rx="59.11" ry="18"/>
<text text-anchor="middle" x="1220" y="-62.6" font-family="Times,serif" font-size="14.00">AuthService</text>
</g>
<!-- AuthModule -->
<g id="node9" class="node">
<title>AuthModule</title>
<polygon fill="#8dd3c7" stroke="black" points="724.55,-149.8 721.55,-153.8 700.55,-153.8 697.55,-149.8 637.45,-149.8 637.45,-113.8 724.55,-113.8 724.55,-149.8"/>
<text text-anchor="middle" x="681" y="-127.6" font-family="Times,serif" font-size="14.00">AuthModule</text>
</g>
<!-- AuthService&#45;&gt;AuthModule -->
<g id="edge1" class="edge">
<title>AuthService&#45;&gt;AuthModule</title>
<path fill="none" stroke="black" d="M1220,-85.09C1220,-107.01 1220,-140.8 1220,-140.8 1220,-140.8 734.65,-140.8 734.65,-140.8"/>
<polygon fill="black" stroke="black" points="734.65,-137.3 724.65,-140.8 734.65,-144.3 734.65,-137.3"/>
</g>
<!-- DiscordStrategy -->
<g id="node2" class="node">
<title>DiscordStrategy</title>
<ellipse fill="#fdb462" stroke="black" cx="1069" cy="-66.8" rx="73.57" ry="18"/>
<text text-anchor="middle" x="1069" y="-62.6" font-family="Times,serif" font-size="14.00">DiscordStrategy</text>
</g>
<!-- DiscordStrategy&#45;&gt;AuthModule -->
<g id="edge2" class="edge">
<title>DiscordStrategy&#45;&gt;AuthModule</title>
<path fill="none" stroke="black" d="M1069,-84.91C1069,-104.14 1069,-131.8 1069,-131.8 1069,-131.8 734.75,-131.8 734.75,-131.8"/>
<polygon fill="black" stroke="black" points="734.75,-128.3 724.75,-131.8 734.75,-135.3 734.75,-128.3"/>
</g>
<!-- GithubStrategy -->
<g id="node3" class="node">
<title>GithubStrategy</title>
<ellipse fill="#fdb462" stroke="black" cx="907" cy="-66.8" rx="70.08" ry="18"/>
<text text-anchor="middle" x="907" y="-62.6" font-family="Times,serif" font-size="14.00">GithubStrategy</text>
</g>
<!-- GithubStrategy&#45;&gt;AuthModule -->
<g id="edge3" class="edge">
<title>GithubStrategy&#45;&gt;AuthModule</title>
<path fill="none" stroke="black" d="M907,-84.83C907,-101.2 907,-122.8 907,-122.8 907,-122.8 734.58,-122.8 734.58,-122.8"/>
<polygon fill="black" stroke="black" points="734.58,-119.3 724.58,-122.8 734.58,-126.3 734.58,-119.3"/>
</g>
<!-- Gitlabtrategy -->
<g id="node4" class="node">
<title>Gitlabtrategy</title>
<ellipse fill="#fdb462" stroke="black" cx="757" cy="-66.8" rx="61.97" ry="18"/>
<text text-anchor="middle" x="757" y="-62.6" font-family="Times,serif" font-size="14.00">Gitlabtrategy</text>
</g>
<!-- Gitlabtrategy&#45;&gt;AuthModule -->
<g id="edge4" class="edge">
<title>Gitlabtrategy&#45;&gt;AuthModule</title>
<path fill="none" stroke="black" d="M709.89,-78.72C709.89,-78.72 709.89,-103.57 709.89,-103.57"/>
<polygon fill="black" stroke="black" points="706.39,-103.57 709.89,-113.57 713.39,-103.57 706.39,-103.57"/>
</g>
<!-- GoogleStrategy -->
<g id="node5" class="node">
<title>GoogleStrategy</title>
<ellipse fill="#fdb462" stroke="black" cx="605" cy="-66.8" rx="71.79" ry="18"/>
<text text-anchor="middle" x="605" y="-62.6" font-family="Times,serif" font-size="14.00">GoogleStrategy</text>
</g>
<!-- GoogleStrategy&#45;&gt;AuthModule -->
<g id="edge5" class="edge">
<title>GoogleStrategy&#45;&gt;AuthModule</title>
<path fill="none" stroke="black" d="M656.94,-79.33C656.94,-79.33 656.94,-103.65 656.94,-103.65"/>
<polygon fill="black" stroke="black" points="653.44,-103.65 656.94,-113.65 660.44,-103.65 653.44,-103.65"/>
</g>
<!-- LinkedinStrategy -->
<g id="node6" class="node">
<title>LinkedinStrategy</title>
<ellipse fill="#fdb462" stroke="black" cx="437" cy="-66.8" rx="78.17" ry="18"/>
<text text-anchor="middle" x="437" y="-62.6" font-family="Times,serif" font-size="14.00">LinkedinStrategy</text>
</g>
<!-- LinkedinStrategy&#45;&gt;AuthModule -->
<g id="edge6" class="edge">
<title>LinkedinStrategy&#45;&gt;AuthModule</title>
<path fill="none" stroke="black" d="M437,-84.83C437,-101.2 437,-122.8 437,-122.8 437,-122.8 627.38,-122.8 627.38,-122.8"/>
<polygon fill="black" stroke="black" points="627.38,-126.3 637.38,-122.8 627.38,-119.3 627.38,-126.3"/>
</g>
<!-- SpotidyStrategy -->
<g id="node7" class="node">
<title>SpotidyStrategy</title>
<ellipse fill="#fdb462" stroke="black" cx="268" cy="-66.8" rx="73.03" ry="18"/>
<text text-anchor="middle" x="268" y="-62.6" font-family="Times,serif" font-size="14.00">SpotidyStrategy</text>
</g>
<!-- SpotidyStrategy&#45;&gt;AuthModule -->
<g id="edge7" class="edge">
<title>SpotidyStrategy&#45;&gt;AuthModule</title>
<path fill="none" stroke="black" d="M268,-84.91C268,-104.14 268,-131.8 268,-131.8 268,-131.8 627.19,-131.8 627.19,-131.8"/>
<polygon fill="black" stroke="black" points="627.19,-135.3 637.19,-131.8 627.19,-128.3 627.19,-135.3"/>
</g>
<!-- YoutubeStrategy -->
<g id="node8" class="node">
<title>YoutubeStrategy</title>
<ellipse fill="#fdb462" stroke="black" cx="100" cy="-66.8" rx="76.45" ry="18"/>
<text text-anchor="middle" x="100" y="-62.6" font-family="Times,serif" font-size="14.00">YoutubeStrategy</text>
</g>
<!-- YoutubeStrategy&#45;&gt;AuthModule -->
<g id="edge8" class="edge">
<title>YoutubeStrategy&#45;&gt;AuthModule</title>
<path fill="none" stroke="black" d="M100,-85.09C100,-107.01 100,-140.8 100,-140.8 100,-140.8 627.33,-140.8 627.33,-140.8"/>
<polygon fill="black" stroke="black" points="627.33,-144.3 637.33,-140.8 627.33,-137.3 627.33,-144.3"/>
</g>
</g>
</svg>
