<?xml version="1.0" encoding="UTF-8" standalone="no"?>
<!DOCTYPE svg PUBLIC "-//W3C//DTD SVG 1.1//EN"
 "http://www.w3.org/Graphics/SVG/1.1/DTD/svg11.dtd">
<!-- Generated by graphviz version 2.47.3 (20210619.1520)
 -->
<!-- Title: dependencies Pages: 1 -->
<svg width="627pt" height="174pt"
 viewBox="0.00 0.00 627.00 173.80" xmlns="http://www.w3.org/2000/svg" xmlns:xlink="http://www.w3.org/1999/xlink">
<g id="graph0" class="graph" transform="scale(1 1) rotate(0) translate(4 169.8)">
<title>dependencies</title>
<polygon fill="white" stroke="transparent" points="-4,4 -4,-169.8 623,-169.8 623,4 -4,4"/>
<text text-anchor="middle" x="309.5" y="-8.2" font-family="sans-serif" font-size="14.00">dependencies</text>
<g id="clust1" class="cluster">
<title>cluster_AppModule</title>
<polygon fill="none" stroke="black" stroke-dasharray="1,5" points="8,-32.8 8,-157.8 611,-157.8 611,-32.8 8,-32.8"/>
</g>
<g id="clust3" class="cluster">
<title>cluster_AppModule_imports</title>
<polygon fill="none" stroke="black" points="154,-40.8 154,-92.8 603,-92.8 603,-40.8 154,-40.8"/>
</g>
<g id="clust6" class="cluster">
<title>cluster_AppModule_providers</title>
<polygon fill="none" stroke="black" points="16,-40.8 16,-92.8 146,-92.8 146,-40.8 16,-40.8"/>
</g>
<!-- AuthModule -->
<g id="node1" class="node">
<title>AuthModule</title>
<polygon fill="#8dd3c7" stroke="black" points="594.55,-84.8 591.55,-88.8 570.55,-88.8 567.55,-84.8 507.45,-84.8 507.45,-48.8 594.55,-48.8 594.55,-84.8"/>
<text text-anchor="middle" x="551" y="-62.6" font-family="Times,serif" font-size="14.00">AuthModule</text>
</g>
<!-- AppModule -->
<g id="node5" class="node">
<title>AppModule</title>
<polygon fill="#8dd3c7" stroke="black" points="363.66,-149.8 360.66,-153.8 339.66,-153.8 336.66,-149.8 280.34,-149.8 280.34,-113.8 363.66,-113.8 363.66,-149.8"/>
<text text-anchor="middle" x="322" y="-127.6" font-family="Times,serif" font-size="14.00">AppModule</text>
</g>
<!-- AuthModule&#45;&gt;AppModule -->
<g id="edge1" class="edge">
<title>AuthModule&#45;&gt;AppModule</title>
<path fill="none" stroke="black" d="M551,-85.08C551,-106.12 551,-137.8 551,-137.8 551,-137.8 373.74,-137.8 373.74,-137.8"/>
<polygon fill="black" stroke="black" points="373.74,-134.3 363.74,-137.8 373.74,-141.3 373.74,-134.3"/>
</g>
<!-- GithubModule -->
<g id="node2" class="node">
<title>GithubModule</title>
<polygon fill="#8dd3c7" stroke="black" points="489.44,-84.8 486.44,-88.8 465.44,-88.8 462.44,-84.8 390.56,-84.8 390.56,-48.8 489.44,-48.8 489.44,-84.8"/>
<text text-anchor="middle" x="440" y="-62.6" font-family="Times,serif" font-size="14.00">GithubModule</text>
</g>
<!-- GithubModule&#45;&gt;AppModule -->
<g id="edge2" class="edge">
<title>GithubModule&#45;&gt;AppModule</title>
<path fill="none" stroke="black" d="M440,-84.82C440,-102.17 440,-125.8 440,-125.8 440,-125.8 373.93,-125.8 373.93,-125.8"/>
<polygon fill="black" stroke="black" points="373.93,-122.3 363.93,-125.8 373.93,-129.3 373.93,-122.3"/>
</g>
<!-- SpotifyModule -->
<g id="node3" class="node">
<title>SpotifyModule</title>
<polygon fill="#8dd3c7" stroke="black" points="372.27,-84.8 369.27,-88.8 348.27,-88.8 345.27,-84.8 271.73,-84.8 271.73,-48.8 372.27,-48.8 372.27,-84.8"/>
<text text-anchor="middle" x="322" y="-62.6" font-family="Times,serif" font-size="14.00">SpotifyModule</text>
</g>
<!-- SpotifyModule&#45;&gt;AppModule -->
<g id="edge3" class="edge">
<title>SpotifyModule&#45;&gt;AppModule</title>
<path fill="none" stroke="black" d="M322,-84.91C322,-84.91 322,-103.79 322,-103.79"/>
<polygon fill="black" stroke="black" points="318.5,-103.79 322,-113.79 325.5,-103.79 318.5,-103.79"/>
</g>
<!-- UsersModule -->
<g id="node4" class="node">
<title>UsersModule</title>
<polygon fill="#8dd3c7" stroke="black" points="253.92,-84.8 250.92,-88.8 229.92,-88.8 226.92,-84.8 162.08,-84.8 162.08,-48.8 253.92,-48.8 253.92,-84.8"/>
<text text-anchor="middle" x="208" y="-62.6" font-family="Times,serif" font-size="14.00">UsersModule</text>
</g>
<!-- UsersModule&#45;&gt;AppModule -->
<g id="edge4" class="edge">
<title>UsersModule&#45;&gt;AppModule</title>
<path fill="none" stroke="black" d="M208,-84.82C208,-102.17 208,-125.8 208,-125.8 208,-125.8 270.2,-125.8 270.2,-125.8"/>
<polygon fill="black" stroke="black" points="270.2,-129.3 280.2,-125.8 270.2,-122.3 270.2,-129.3"/>
</g>
<!-- AppService -->
<g id="node6" class="node">
<title>AppService</title>
<ellipse fill="#fdb462" stroke="black" cx="81" cy="-66.8" rx="56.74" ry="18"/>
<text text-anchor="middle" x="81" y="-62.6" font-family="Times,serif" font-size="14.00">AppService</text>
</g>
<!-- AppService&#45;&gt;AppModule -->
<g id="edge5" class="edge">
<title>AppService&#45;&gt;AppModule</title>
<path fill="none" stroke="black" d="M81,-85.08C81,-106.12 81,-137.8 81,-137.8 81,-137.8 270.3,-137.8 270.3,-137.8"/>
<polygon fill="black" stroke="black" points="270.3,-141.3 280.3,-137.8 270.3,-134.3 270.3,-141.3"/>
</g>
</g>
</svg>
